<mxfile host="app.diagrams.net" agent="Mozilla/5.0 (Windows NT 10.0; Win64; x64) AppleWebKit/537.36 (KHTML, like Gecko) Chrome/129.0.0.0 Safari/537.36" version="24.7.16">
  <diagram id="R2lEEEUBdFMjLlhIrx00" name="Page-1">
    <mxGraphModel grid="1" page="1" gridSize="10" guides="1" tooltips="1" connect="1" arrows="1" fold="1" pageScale="1" pageWidth="850" pageHeight="1100" math="0" shadow="0" extFonts="Permanent Marker^https://fonts.googleapis.com/css?family=Permanent+Marker">
      <root>
        <mxCell id="0" />
        <mxCell id="1" parent="0" />
        <mxCell id="JfFtpPmvwm0unq5B4NQ8-1" value="TRAVELLER" style="whiteSpace=wrap;html=1;align=center;" vertex="1" parent="1">
          <mxGeometry x="210" y="160" width="100" height="40" as="geometry" />
        </mxCell>
        <mxCell id="JfFtpPmvwm0unq5B4NQ8-2" value="DEPARTMENT BUDGETING OFFICE" style="whiteSpace=wrap;html=1;align=center;" vertex="1" parent="1">
          <mxGeometry x="950" y="310" width="110" height="50" as="geometry" />
        </mxCell>
        <mxCell id="JfFtpPmvwm0unq5B4NQ8-4" value="UNIVERSITY FINANCIAL SERVICES&amp;nbsp;" style="whiteSpace=wrap;html=1;align=center;" vertex="1" parent="1">
          <mxGeometry x="290" y="460" width="110" height="50" as="geometry" />
        </mxCell>
        <mxCell id="JfFtpPmvwm0unq5B4NQ8-5" value="DEPARTMENT ADMINISTRATOR" style="whiteSpace=wrap;html=1;align=center;" vertex="1" parent="1">
          <mxGeometry x="680" y="-150" width="130" height="40" as="geometry" />
        </mxCell>
        <mxCell id="JfFtpPmvwm0unq5B4NQ8-22" value="verifies" style="shape=rhombus;perimeter=rhombusPerimeter;whiteSpace=wrap;html=1;align=center;" vertex="1" parent="1">
          <mxGeometry x="890" y="470" width="120" height="60" as="geometry" />
        </mxCell>
        <mxCell id="JfFtpPmvwm0unq5B4NQ8-23" value="POLICIES" style="shape=label;margin=3;double=1;whiteSpace=wrap;html=1;align=center;" vertex="1" parent="1">
          <mxGeometry x="690" y="570" width="100" height="40" as="geometry" />
        </mxCell>
        <mxCell id="JfFtpPmvwm0unq5B4NQ8-24" value="Email" style="ellipse;whiteSpace=wrap;html=1;align=center;" vertex="1" parent="1">
          <mxGeometry x="50" y="40" width="100" height="40" as="geometry" />
        </mxCell>
        <mxCell id="JfFtpPmvwm0unq5B4NQ8-25" value="name" style="ellipse;whiteSpace=wrap;html=1;align=center;" vertex="1" parent="1">
          <mxGeometry x="80" y="-30" width="100" height="40" as="geometry" />
        </mxCell>
        <mxCell id="JfFtpPmvwm0unq5B4NQ8-27" value="" style="endArrow=none;html=1;rounded=0;exitX=0.75;exitY=0;exitDx=0;exitDy=0;entryX=0.5;entryY=1;entryDx=0;entryDy=0;" edge="1" parent="1" source="JfFtpPmvwm0unq5B4NQ8-1" target="JfFtpPmvwm0unq5B4NQ8-58">
          <mxGeometry width="50" height="50" relative="1" as="geometry">
            <mxPoint x="400" y="180" as="sourcePoint" />
            <mxPoint x="420" y="40" as="targetPoint" />
          </mxGeometry>
        </mxCell>
        <mxCell id="JfFtpPmvwm0unq5B4NQ8-28" value="manages" style="shape=rhombus;perimeter=rhombusPerimeter;whiteSpace=wrap;html=1;align=center;" vertex="1" parent="1">
          <mxGeometry x="450" y="560" width="120" height="60" as="geometry" />
        </mxCell>
        <mxCell id="JfFtpPmvwm0unq5B4NQ8-30" value="" style="endArrow=none;html=1;rounded=0;exitX=0.5;exitY=0;exitDx=0;exitDy=0;" edge="1" parent="1" source="JfFtpPmvwm0unq5B4NQ8-23" target="JfFtpPmvwm0unq5B4NQ8-22">
          <mxGeometry width="50" height="50" relative="1" as="geometry">
            <mxPoint x="370" y="460" as="sourcePoint" />
            <mxPoint x="420" y="410" as="targetPoint" />
          </mxGeometry>
        </mxCell>
        <mxCell id="JfFtpPmvwm0unq5B4NQ8-31" value="" style="endArrow=classic;html=1;rounded=0;exitX=0.75;exitY=1;exitDx=0;exitDy=0;entryX=1;entryY=0.5;entryDx=0;entryDy=0;" edge="1" parent="1" source="JfFtpPmvwm0unq5B4NQ8-4" target="JfFtpPmvwm0unq5B4NQ8-51">
          <mxGeometry width="50" height="50" relative="1" as="geometry">
            <mxPoint x="370" y="460" as="sourcePoint" />
            <mxPoint x="420" y="410" as="targetPoint" />
          </mxGeometry>
        </mxCell>
        <mxCell id="JfFtpPmvwm0unq5B4NQ8-32" value="" style="endArrow=classic;html=1;rounded=0;exitX=1;exitY=0.5;exitDx=0;exitDy=0;entryX=0;entryY=0.5;entryDx=0;entryDy=0;" edge="1" parent="1" source="JfFtpPmvwm0unq5B4NQ8-28" target="JfFtpPmvwm0unq5B4NQ8-23">
          <mxGeometry width="50" height="50" relative="1" as="geometry">
            <mxPoint x="370" y="460" as="sourcePoint" />
            <mxPoint x="420" y="410" as="targetPoint" />
          </mxGeometry>
        </mxCell>
        <mxCell id="JfFtpPmvwm0unq5B4NQ8-33" value="" style="endArrow=none;html=1;rounded=0;entryX=0.5;entryY=1;entryDx=0;entryDy=0;" edge="1" parent="1" source="JfFtpPmvwm0unq5B4NQ8-22" target="JfFtpPmvwm0unq5B4NQ8-2">
          <mxGeometry width="50" height="50" relative="1" as="geometry">
            <mxPoint x="370" y="460" as="sourcePoint" />
            <mxPoint x="420" y="410" as="targetPoint" />
          </mxGeometry>
        </mxCell>
        <mxCell id="JfFtpPmvwm0unq5B4NQ8-34" value="" style="endArrow=none;html=1;rounded=0;exitX=0.25;exitY=0;exitDx=0;exitDy=0;entryX=0.5;entryY=1;entryDx=0;entryDy=0;" edge="1" parent="1" source="JfFtpPmvwm0unq5B4NQ8-1" target="JfFtpPmvwm0unq5B4NQ8-25">
          <mxGeometry width="50" height="50" relative="1" as="geometry">
            <mxPoint x="370" y="230" as="sourcePoint" />
            <mxPoint x="420" y="180" as="targetPoint" />
          </mxGeometry>
        </mxCell>
        <mxCell id="JfFtpPmvwm0unq5B4NQ8-42" value="reimburse" style="shape=rhombus;perimeter=rhombusPerimeter;whiteSpace=wrap;html=1;align=center;" vertex="1" parent="1">
          <mxGeometry x="235" y="300" width="120" height="60" as="geometry" />
        </mxCell>
        <mxCell id="JfFtpPmvwm0unq5B4NQ8-43" value="" style="endArrow=classic;html=1;rounded=0;entryX=0.5;entryY=1;entryDx=0;entryDy=0;" edge="1" parent="1" source="JfFtpPmvwm0unq5B4NQ8-4" target="JfFtpPmvwm0unq5B4NQ8-42">
          <mxGeometry width="50" height="50" relative="1" as="geometry">
            <mxPoint x="370" y="370" as="sourcePoint" />
            <mxPoint x="420" y="320" as="targetPoint" />
          </mxGeometry>
        </mxCell>
        <mxCell id="JfFtpPmvwm0unq5B4NQ8-44" value="" style="endArrow=classic;html=1;rounded=0;entryX=0.5;entryY=1;entryDx=0;entryDy=0;exitX=0.5;exitY=0;exitDx=0;exitDy=0;" edge="1" parent="1" source="JfFtpPmvwm0unq5B4NQ8-42" target="JfFtpPmvwm0unq5B4NQ8-1">
          <mxGeometry width="50" height="50" relative="1" as="geometry">
            <mxPoint x="370" y="370" as="sourcePoint" />
            <mxPoint x="420" y="320" as="targetPoint" />
          </mxGeometry>
        </mxCell>
        <mxCell id="JfFtpPmvwm0unq5B4NQ8-48" value="M" style="text;strokeColor=none;fillColor=none;spacingLeft=4;spacingRight=4;overflow=hidden;rotatable=0;points=[[0,0.5],[1,0.5]];portConstraint=eastwest;fontSize=12;whiteSpace=wrap;html=1;" vertex="1" parent="1">
          <mxGeometry x="900" y="510" width="40" height="30" as="geometry" />
        </mxCell>
        <mxCell id="JfFtpPmvwm0unq5B4NQ8-49" value="M" style="text;strokeColor=none;fillColor=none;spacingLeft=4;spacingRight=4;overflow=hidden;rotatable=0;points=[[0,0.5],[1,0.5]];portConstraint=eastwest;fontSize=12;whiteSpace=wrap;html=1;" vertex="1" parent="1">
          <mxGeometry x="560" y="590" width="40" height="30" as="geometry" />
        </mxCell>
        <mxCell id="JfFtpPmvwm0unq5B4NQ8-51" value="1" style="text;strokeColor=none;fillColor=none;spacingLeft=4;spacingRight=4;overflow=hidden;rotatable=0;points=[[0,0.5],[1,0.5]];portConstraint=eastwest;fontSize=12;whiteSpace=wrap;html=1;" vertex="1" parent="1">
          <mxGeometry x="450" y="560" width="40" height="30" as="geometry" />
        </mxCell>
        <mxCell id="JfFtpPmvwm0unq5B4NQ8-52" value="1" style="text;strokeColor=none;fillColor=none;spacingLeft=4;spacingRight=4;overflow=hidden;rotatable=0;points=[[0,0.5],[1,0.5]];portConstraint=eastwest;fontSize=12;whiteSpace=wrap;html=1;" vertex="1" parent="1">
          <mxGeometry x="310" y="360" width="40" height="30" as="geometry" />
        </mxCell>
        <mxCell id="JfFtpPmvwm0unq5B4NQ8-53" value="M" style="text;strokeColor=none;fillColor=none;spacingLeft=4;spacingRight=4;overflow=hidden;rotatable=0;points=[[0,0.5],[1,0.5]];portConstraint=eastwest;fontSize=12;whiteSpace=wrap;html=1;" vertex="1" parent="1">
          <mxGeometry x="300" y="280" width="40" height="30" as="geometry" />
        </mxCell>
        <mxCell id="JfFtpPmvwm0unq5B4NQ8-54" value="SSN" style="ellipse;whiteSpace=wrap;html=1;align=center;" vertex="1" parent="1">
          <mxGeometry x="380" y="-50" width="100" height="40" as="geometry" />
        </mxCell>
        <mxCell id="JfFtpPmvwm0unq5B4NQ8-55" value="" style="endArrow=none;html=1;rounded=0;entryX=0.5;entryY=1;entryDx=0;entryDy=0;exitX=1;exitY=0;exitDx=0;exitDy=0;" edge="1" parent="1" source="JfFtpPmvwm0unq5B4NQ8-1" target="JfFtpPmvwm0unq5B4NQ8-54">
          <mxGeometry width="50" height="50" relative="1" as="geometry">
            <mxPoint x="370" y="300" as="sourcePoint" />
            <mxPoint x="420" y="250" as="targetPoint" />
          </mxGeometry>
        </mxCell>
        <mxCell id="JfFtpPmvwm0unq5B4NQ8-58" value="Travel id" style="ellipse;whiteSpace=wrap;html=1;align=center;fontStyle=4;" vertex="1" parent="1">
          <mxGeometry x="340" y="-110" width="100" height="40" as="geometry" />
        </mxCell>
        <mxCell id="JfFtpPmvwm0unq5B4NQ8-59" value="" style="endArrow=none;html=1;rounded=0;entryX=0.5;entryY=1;entryDx=0;entryDy=0;exitX=0;exitY=0;exitDx=0;exitDy=0;" edge="1" parent="1" source="JfFtpPmvwm0unq5B4NQ8-1" target="JfFtpPmvwm0unq5B4NQ8-24">
          <mxGeometry width="50" height="50" relative="1" as="geometry">
            <mxPoint x="330" y="150" as="sourcePoint" />
            <mxPoint x="200" y="100" as="targetPoint" />
          </mxGeometry>
        </mxCell>
        <mxCell id="JfFtpPmvwm0unq5B4NQ8-65" value="" style="endArrow=none;html=1;rounded=0;entryX=0.5;entryY=1;entryDx=0;entryDy=0;exitX=0.5;exitY=0;exitDx=0;exitDy=0;" edge="1" parent="1" source="JfFtpPmvwm0unq5B4NQ8-1" target="JfFtpPmvwm0unq5B4NQ8-66">
          <mxGeometry width="50" height="50" relative="1" as="geometry">
            <mxPoint x="370" y="110" as="sourcePoint" />
            <mxPoint x="400" y="20" as="targetPoint" />
          </mxGeometry>
        </mxCell>
        <mxCell id="JfFtpPmvwm0unq5B4NQ8-66" value="d" style="ellipse;whiteSpace=wrap;html=1;aspect=fixed;" vertex="1" parent="1">
          <mxGeometry x="235" y="30" width="30" height="30" as="geometry" />
        </mxCell>
        <mxCell id="JfFtpPmvwm0unq5B4NQ8-67" value="" style="endArrow=none;html=1;rounded=0;exitX=1;exitY=0;exitDx=0;exitDy=0;entryX=0.5;entryY=1;entryDx=0;entryDy=0;" edge="1" parent="1" source="JfFtpPmvwm0unq5B4NQ8-66" target="JfFtpPmvwm0unq5B4NQ8-71">
          <mxGeometry width="50" height="50" relative="1" as="geometry">
            <mxPoint x="400" y="40" as="sourcePoint" />
            <mxPoint x="400" y="-60" as="targetPoint" />
          </mxGeometry>
        </mxCell>
        <mxCell id="JfFtpPmvwm0unq5B4NQ8-68" value="" style="endArrow=none;html=1;rounded=0;exitX=0;exitY=0;exitDx=0;exitDy=0;entryX=0.5;entryY=1;entryDx=0;entryDy=0;" edge="1" parent="1" source="JfFtpPmvwm0unq5B4NQ8-66" target="JfFtpPmvwm0unq5B4NQ8-73">
          <mxGeometry width="50" height="50" relative="1" as="geometry">
            <mxPoint x="350" y="40" as="sourcePoint" />
            <mxPoint x="330" y="-40" as="targetPoint" />
          </mxGeometry>
        </mxCell>
        <mxCell id="JfFtpPmvwm0unq5B4NQ8-71" value="EMPLOYEE" style="whiteSpace=wrap;html=1;align=center;" vertex="1" parent="1">
          <mxGeometry x="265" y="-180" width="100" height="40" as="geometry" />
        </mxCell>
        <mxCell id="JfFtpPmvwm0unq5B4NQ8-73" value="STUDENT" style="whiteSpace=wrap;html=1;align=center;" vertex="1" parent="1">
          <mxGeometry x="120" y="-180" width="100" height="40" as="geometry" />
        </mxCell>
        <mxCell id="JfFtpPmvwm0unq5B4NQ8-76" value="Type of Traveller" style="text;strokeColor=none;fillColor=none;spacingLeft=4;spacingRight=4;overflow=hidden;rotatable=0;points=[[0,0.5],[1,0.5]];portConstraint=eastwest;fontSize=12;whiteSpace=wrap;html=1;" vertex="1" parent="1">
          <mxGeometry x="250" y="60" width="90" height="50" as="geometry" />
        </mxCell>
        <mxCell id="JfFtpPmvwm0unq5B4NQ8-77" value="description" style="ellipse;whiteSpace=wrap;html=1;align=center;" vertex="1" parent="1">
          <mxGeometry x="820" y="740" width="100" height="40" as="geometry" />
        </mxCell>
        <mxCell id="JfFtpPmvwm0unq5B4NQ8-78" value="&lt;u&gt;ID&lt;/u&gt;" style="ellipse;whiteSpace=wrap;html=1;align=center;" vertex="1" parent="1">
          <mxGeometry x="570" y="730" width="100" height="40" as="geometry" />
        </mxCell>
        <mxCell id="JfFtpPmvwm0unq5B4NQ8-79" value="name" style="ellipse;whiteSpace=wrap;html=1;align=center;" vertex="1" parent="1">
          <mxGeometry x="700" y="740" width="100" height="40" as="geometry" />
        </mxCell>
        <mxCell id="JfFtpPmvwm0unq5B4NQ8-80" value="beneficiary&lt;div&gt;&amp;nbsp;acc no&lt;/div&gt;" style="ellipse;whiteSpace=wrap;html=1;align=center;" vertex="1" parent="1">
          <mxGeometry x="170" y="610" width="100" height="40" as="geometry" />
        </mxCell>
        <mxCell id="JfFtpPmvwm0unq5B4NQ8-81" value="" style="endArrow=none;html=1;rounded=0;entryX=0.25;entryY=1;entryDx=0;entryDy=0;exitX=0.5;exitY=0;exitDx=0;exitDy=0;" edge="1" parent="1" source="JfFtpPmvwm0unq5B4NQ8-78" target="JfFtpPmvwm0unq5B4NQ8-23">
          <mxGeometry width="50" height="50" relative="1" as="geometry">
            <mxPoint x="630" y="690" as="sourcePoint" />
            <mxPoint x="680" y="640" as="targetPoint" />
          </mxGeometry>
        </mxCell>
        <mxCell id="JfFtpPmvwm0unq5B4NQ8-82" value="" style="endArrow=none;html=1;rounded=0;entryX=0.5;entryY=1;entryDx=0;entryDy=0;exitX=0.5;exitY=0;exitDx=0;exitDy=0;" edge="1" parent="1" source="JfFtpPmvwm0unq5B4NQ8-79" target="JfFtpPmvwm0unq5B4NQ8-23">
          <mxGeometry width="50" height="50" relative="1" as="geometry">
            <mxPoint x="720" y="710" as="sourcePoint" />
            <mxPoint x="770" y="660" as="targetPoint" />
          </mxGeometry>
        </mxCell>
        <mxCell id="JfFtpPmvwm0unq5B4NQ8-83" value="" style="endArrow=none;html=1;rounded=0;entryX=0.75;entryY=1;entryDx=0;entryDy=0;exitX=0.5;exitY=0;exitDx=0;exitDy=0;" edge="1" parent="1" source="JfFtpPmvwm0unq5B4NQ8-77" target="JfFtpPmvwm0unq5B4NQ8-23">
          <mxGeometry width="50" height="50" relative="1" as="geometry">
            <mxPoint x="800" y="690" as="sourcePoint" />
            <mxPoint x="770" y="630" as="targetPoint" />
          </mxGeometry>
        </mxCell>
        <mxCell id="JfFtpPmvwm0unq5B4NQ8-84" value="travel id" style="ellipse;whiteSpace=wrap;html=1;align=center;" vertex="1" parent="1">
          <mxGeometry x="1140" y="200" width="100" height="40" as="geometry" />
        </mxCell>
        <mxCell id="JfFtpPmvwm0unq5B4NQ8-85" value="" style="endArrow=none;html=1;rounded=0;exitX=0.75;exitY=0;exitDx=0;exitDy=0;entryX=0;entryY=1;entryDx=0;entryDy=0;" edge="1" parent="1" source="JfFtpPmvwm0unq5B4NQ8-2" target="JfFtpPmvwm0unq5B4NQ8-84">
          <mxGeometry width="50" height="50" relative="1" as="geometry">
            <mxPoint x="900" y="280" as="sourcePoint" />
            <mxPoint x="950" y="230" as="targetPoint" />
          </mxGeometry>
        </mxCell>
        <mxCell id="JfFtpPmvwm0unq5B4NQ8-86" value="location" style="ellipse;whiteSpace=wrap;html=1;align=center;" vertex="1" parent="1">
          <mxGeometry x="1140" y="310" width="100" height="40" as="geometry" />
        </mxCell>
        <mxCell id="JfFtpPmvwm0unq5B4NQ8-87" value="" style="endArrow=none;html=1;rounded=0;exitX=1;exitY=0.25;exitDx=0;exitDy=0;entryX=0;entryY=0.5;entryDx=0;entryDy=0;" edge="1" parent="1" source="JfFtpPmvwm0unq5B4NQ8-2" target="JfFtpPmvwm0unq5B4NQ8-86">
          <mxGeometry width="50" height="50" relative="1" as="geometry">
            <mxPoint x="870" y="300" as="sourcePoint" />
            <mxPoint x="920" y="250" as="targetPoint" />
          </mxGeometry>
        </mxCell>
        <mxCell id="JfFtpPmvwm0unq5B4NQ8-88" value="budget&amp;nbsp;&lt;div&gt;allocation&lt;/div&gt;" style="ellipse;whiteSpace=wrap;html=1;align=center;" vertex="1" parent="1">
          <mxGeometry x="1130" y="490" width="100" height="40" as="geometry" />
        </mxCell>
        <mxCell id="JfFtpPmvwm0unq5B4NQ8-89" value="" style="endArrow=none;html=1;rounded=0;entryX=0.75;entryY=1;entryDx=0;entryDy=0;exitX=0;exitY=0.5;exitDx=0;exitDy=0;" edge="1" parent="1" source="JfFtpPmvwm0unq5B4NQ8-88" target="JfFtpPmvwm0unq5B4NQ8-2">
          <mxGeometry width="50" height="50" relative="1" as="geometry">
            <mxPoint x="590" y="400" as="sourcePoint" />
            <mxPoint x="640" y="350" as="targetPoint" />
          </mxGeometry>
        </mxCell>
        <mxCell id="JfFtpPmvwm0unq5B4NQ8-90" value="" style="endArrow=none;html=1;rounded=0;entryX=0.25;entryY=1;entryDx=0;entryDy=0;exitX=0.5;exitY=0;exitDx=0;exitDy=0;" edge="1" parent="1" source="JfFtpPmvwm0unq5B4NQ8-80" target="JfFtpPmvwm0unq5B4NQ8-4">
          <mxGeometry width="50" height="50" relative="1" as="geometry">
            <mxPoint x="280" y="600" as="sourcePoint" />
            <mxPoint x="330" y="550" as="targetPoint" />
          </mxGeometry>
        </mxCell>
        <mxCell id="JfFtpPmvwm0unq5B4NQ8-93" value="travel id" style="ellipse;whiteSpace=wrap;html=1;align=center;" vertex="1" parent="1">
          <mxGeometry x="100" y="560" width="100" height="40" as="geometry" />
        </mxCell>
        <mxCell id="JfFtpPmvwm0unq5B4NQ8-94" value="" style="endArrow=none;html=1;rounded=0;entryX=0;entryY=0.5;entryDx=0;entryDy=0;exitX=0.5;exitY=0;exitDx=0;exitDy=0;" edge="1" parent="1" source="JfFtpPmvwm0unq5B4NQ8-93" target="JfFtpPmvwm0unq5B4NQ8-4">
          <mxGeometry width="50" height="50" relative="1" as="geometry">
            <mxPoint x="220" y="550" as="sourcePoint" />
            <mxPoint x="270" y="500" as="targetPoint" />
          </mxGeometry>
        </mxCell>
        <mxCell id="JfFtpPmvwm0unq5B4NQ8-96" value="transaction&lt;div&gt;type&lt;/div&gt;" style="ellipse;whiteSpace=wrap;html=1;align=center;" vertex="1" parent="1">
          <mxGeometry x="50" y="510" width="100" height="40" as="geometry" />
        </mxCell>
        <mxCell id="JfFtpPmvwm0unq5B4NQ8-97" value="" style="endArrow=none;html=1;rounded=0;entryX=0;entryY=0.25;entryDx=0;entryDy=0;exitX=1;exitY=0.5;exitDx=0;exitDy=0;" edge="1" parent="1" source="JfFtpPmvwm0unq5B4NQ8-96" target="JfFtpPmvwm0unq5B4NQ8-4">
          <mxGeometry width="50" height="50" relative="1" as="geometry">
            <mxPoint x="180" y="530" as="sourcePoint" />
            <mxPoint x="230" y="480" as="targetPoint" />
          </mxGeometry>
        </mxCell>
        <mxCell id="JfFtpPmvwm0unq5B4NQ8-98" value="officer" style="ellipse;whiteSpace=wrap;html=1;align=center;" vertex="1" parent="1">
          <mxGeometry x="280" y="640" width="100" height="40" as="geometry" />
        </mxCell>
        <mxCell id="JfFtpPmvwm0unq5B4NQ8-99" value="" style="endArrow=none;html=1;rounded=0;entryX=0.5;entryY=1;entryDx=0;entryDy=0;exitX=0.5;exitY=0;exitDx=0;exitDy=0;" edge="1" parent="1" source="JfFtpPmvwm0unq5B4NQ8-98" target="JfFtpPmvwm0unq5B4NQ8-4">
          <mxGeometry width="50" height="50" relative="1" as="geometry">
            <mxPoint x="350" y="630" as="sourcePoint" />
            <mxPoint x="400" y="580" as="targetPoint" />
          </mxGeometry>
        </mxCell>
        <mxCell id="JfFtpPmvwm0unq5B4NQ8-100" value="name" style="ellipse;whiteSpace=wrap;html=1;align=center;" vertex="1" parent="1">
          <mxGeometry x="620" y="-320" width="100" height="40" as="geometry" />
        </mxCell>
        <mxCell id="JfFtpPmvwm0unq5B4NQ8-101" value="travel id" style="ellipse;whiteSpace=wrap;html=1;align=center;" vertex="1" parent="1">
          <mxGeometry x="770" y="-320" width="100" height="40" as="geometry" />
        </mxCell>
        <mxCell id="JfFtpPmvwm0unq5B4NQ8-102" value="" style="endArrow=none;html=1;rounded=0;entryX=0.5;entryY=1;entryDx=0;entryDy=0;exitX=0.25;exitY=0;exitDx=0;exitDy=0;" edge="1" parent="1" source="JfFtpPmvwm0unq5B4NQ8-5" target="JfFtpPmvwm0unq5B4NQ8-100">
          <mxGeometry width="50" height="50" relative="1" as="geometry">
            <mxPoint x="-70" y="290" as="sourcePoint" />
            <mxPoint x="-20" y="240" as="targetPoint" />
          </mxGeometry>
        </mxCell>
        <mxCell id="JfFtpPmvwm0unq5B4NQ8-103" value="" style="endArrow=none;html=1;rounded=0;entryX=0.75;entryY=0;entryDx=0;entryDy=0;exitX=0.5;exitY=1;exitDx=0;exitDy=0;" edge="1" parent="1" source="JfFtpPmvwm0unq5B4NQ8-101" target="JfFtpPmvwm0unq5B4NQ8-5">
          <mxGeometry width="50" height="50" relative="1" as="geometry">
            <mxPoint x="-70" y="430" as="sourcePoint" />
            <mxPoint x="-20" y="380" as="targetPoint" />
          </mxGeometry>
        </mxCell>
        <mxCell id="JfFtpPmvwm0unq5B4NQ8-104" value="&lt;u&gt;UIN&lt;/u&gt;" style="ellipse;whiteSpace=wrap;html=1;align=center;" vertex="1" parent="1">
          <mxGeometry x="690" y="-370" width="100" height="40" as="geometry" />
        </mxCell>
        <mxCell id="JfFtpPmvwm0unq5B4NQ8-105" value="" style="endArrow=none;html=1;rounded=0;exitX=0.5;exitY=1;exitDx=0;exitDy=0;entryX=0.5;entryY=0;entryDx=0;entryDy=0;" edge="1" parent="1" source="JfFtpPmvwm0unq5B4NQ8-104" target="JfFtpPmvwm0unq5B4NQ8-5">
          <mxGeometry width="50" height="50" relative="1" as="geometry">
            <mxPoint x="-120" y="370" as="sourcePoint" />
            <mxPoint x="-70" y="320" as="targetPoint" />
          </mxGeometry>
        </mxCell>
        <mxCell id="VUu1D5smWkgnO6-AwXRt-5" value="requests" style="shape=rhombus;perimeter=rhombusPerimeter;whiteSpace=wrap;html=1;align=center;" vertex="1" parent="1">
          <mxGeometry x="430" y="150" width="120" height="60" as="geometry" />
        </mxCell>
        <mxCell id="VUu1D5smWkgnO6-AwXRt-6" value="approves" style="shape=rhombus;perimeter=rhombusPerimeter;whiteSpace=wrap;html=1;align=center;" vertex="1" parent="1">
          <mxGeometry x="840" y="210" width="120" height="60" as="geometry" />
        </mxCell>
        <mxCell id="VUu1D5smWkgnO6-AwXRt-7" value="" style="endArrow=classic;html=1;rounded=0;exitX=1;exitY=0.5;exitDx=0;exitDy=0;entryX=0;entryY=0.5;entryDx=0;entryDy=0;" edge="1" parent="1" source="JfFtpPmvwm0unq5B4NQ8-1" target="VUu1D5smWkgnO6-AwXRt-5">
          <mxGeometry width="50" height="50" relative="1" as="geometry">
            <mxPoint x="490" y="240" as="sourcePoint" />
            <mxPoint x="540" y="190" as="targetPoint" />
          </mxGeometry>
        </mxCell>
        <mxCell id="VUu1D5smWkgnO6-AwXRt-9" value="" style="endArrow=classic;html=1;rounded=0;exitX=0.5;exitY=0;exitDx=0;exitDy=0;entryX=1;entryY=0.5;entryDx=0;entryDy=0;" edge="1" parent="1" source="JfFtpPmvwm0unq5B4NQ8-2" target="VUu1D5smWkgnO6-AwXRt-6">
          <mxGeometry width="50" height="50" relative="1" as="geometry">
            <mxPoint x="490" y="240" as="sourcePoint" />
            <mxPoint x="540" y="190" as="targetPoint" />
          </mxGeometry>
        </mxCell>
        <mxCell id="VUu1D5smWkgnO6-AwXRt-10" value="" style="endArrow=classic;html=1;rounded=0;exitX=0;exitY=0.5;exitDx=0;exitDy=0;entryX=1;entryY=1;entryDx=0;entryDy=0;" edge="1" parent="1" source="VUu1D5smWkgnO6-AwXRt-6">
          <mxGeometry width="50" height="50" relative="1" as="geometry">
            <mxPoint x="490" y="240" as="sourcePoint" />
            <mxPoint x="780" y="190" as="targetPoint" />
          </mxGeometry>
        </mxCell>
        <mxCell id="VUu1D5smWkgnO6-AwXRt-11" value="audits" style="shape=rhombus;perimeter=rhombusPerimeter;whiteSpace=wrap;html=1;align=center;" vertex="1" parent="1">
          <mxGeometry x="670" y="-30" width="120" height="60" as="geometry" />
        </mxCell>
        <mxCell id="VUu1D5smWkgnO6-AwXRt-13" value="" style="endArrow=classic;html=1;rounded=0;exitX=0.5;exitY=1;exitDx=0;exitDy=0;entryX=0.5;entryY=0;entryDx=0;entryDy=0;" edge="1" parent="1" source="JfFtpPmvwm0unq5B4NQ8-5" target="VUu1D5smWkgnO6-AwXRt-11">
          <mxGeometry width="50" height="50" relative="1" as="geometry">
            <mxPoint x="900" y="-50" as="sourcePoint" />
            <mxPoint x="950" y="-100" as="targetPoint" />
          </mxGeometry>
        </mxCell>
        <mxCell id="VUu1D5smWkgnO6-AwXRt-14" value="" style="endArrow=classic;html=1;rounded=0;exitX=0.5;exitY=1;exitDx=0;exitDy=0;entryX=0.5;entryY=0;entryDx=0;entryDy=0;" edge="1" parent="1" source="VUu1D5smWkgnO6-AwXRt-11">
          <mxGeometry width="50" height="50" relative="1" as="geometry">
            <mxPoint x="640" y="-50" as="sourcePoint" />
            <mxPoint x="725" y="150" as="targetPoint" />
          </mxGeometry>
        </mxCell>
        <mxCell id="VUu1D5smWkgnO6-AwXRt-16" value="amount" style="ellipse;whiteSpace=wrap;html=1;align=center;" vertex="1" parent="1">
          <mxGeometry x="540" y="315" width="100" height="40" as="geometry" />
        </mxCell>
        <mxCell id="VUu1D5smWkgnO6-AwXRt-17" value="travel id" style="ellipse;whiteSpace=wrap;html=1;align=center;" vertex="1" parent="1">
          <mxGeometry x="600" y="375" width="100" height="40" as="geometry" />
        </mxCell>
        <mxCell id="VUu1D5smWkgnO6-AwXRt-18" value="travel&lt;div&gt;documents&lt;/div&gt;" style="ellipse;whiteSpace=wrap;html=1;align=center;" vertex="1" parent="1">
          <mxGeometry x="700" y="355" width="100" height="40" as="geometry" />
        </mxCell>
        <mxCell id="VUu1D5smWkgnO6-AwXRt-19" value="" style="endArrow=none;html=1;rounded=0;entryX=0.25;entryY=1;entryDx=0;entryDy=0;exitX=0.5;exitY=0;exitDx=0;exitDy=0;" edge="1" parent="1" source="VUu1D5smWkgnO6-AwXRt-16" target="1kij8Iq1sjP4dTyGCAq3-3">
          <mxGeometry width="50" height="50" relative="1" as="geometry">
            <mxPoint x="600" y="290" as="sourcePoint" />
            <mxPoint x="697.5" y="190" as="targetPoint" />
          </mxGeometry>
        </mxCell>
        <mxCell id="VUu1D5smWkgnO6-AwXRt-20" value="" style="endArrow=none;html=1;rounded=0;entryX=0.5;entryY=1;entryDx=0;entryDy=0;exitX=0.5;exitY=0;exitDx=0;exitDy=0;" edge="1" parent="1" source="VUu1D5smWkgnO6-AwXRt-17" target="1kij8Iq1sjP4dTyGCAq3-3">
          <mxGeometry width="50" height="50" relative="1" as="geometry">
            <mxPoint x="620" y="350" as="sourcePoint" />
            <mxPoint x="725" y="190" as="targetPoint" />
          </mxGeometry>
        </mxCell>
        <mxCell id="VUu1D5smWkgnO6-AwXRt-21" value="" style="endArrow=none;html=1;rounded=0;entryX=0.675;entryY=1.033;entryDx=0;entryDy=0;exitX=0.5;exitY=0;exitDx=0;exitDy=0;entryPerimeter=0;" edge="1" parent="1" source="VUu1D5smWkgnO6-AwXRt-18" target="1kij8Iq1sjP4dTyGCAq3-3">
          <mxGeometry width="50" height="50" relative="1" as="geometry">
            <mxPoint x="700" y="310" as="sourcePoint" />
            <mxPoint x="752.5" y="190" as="targetPoint" />
          </mxGeometry>
        </mxCell>
        <mxCell id="VUu1D5smWkgnO6-AwXRt-23" value="1" style="text;strokeColor=none;fillColor=none;spacingLeft=4;spacingRight=4;overflow=hidden;rotatable=0;points=[[0,0.5],[1,0.5]];portConstraint=eastwest;fontSize=12;whiteSpace=wrap;html=1;" vertex="1" parent="1">
          <mxGeometry x="960" y="225" width="40" height="30" as="geometry" />
        </mxCell>
        <mxCell id="VUu1D5smWkgnO6-AwXRt-25" value="1" style="text;strokeColor=none;fillColor=none;spacingLeft=4;spacingRight=4;overflow=hidden;rotatable=0;points=[[0,0.5],[1,0.5]];portConstraint=eastwest;fontSize=12;whiteSpace=wrap;html=1;" vertex="1" parent="1">
          <mxGeometry x="970" y="450" width="40" height="30" as="geometry" />
        </mxCell>
        <mxCell id="VUu1D5smWkgnO6-AwXRt-26" value="M" style="text;strokeColor=none;fillColor=none;spacingLeft=4;spacingRight=4;overflow=hidden;rotatable=0;points=[[0,0.5],[1,0.5]];portConstraint=eastwest;fontSize=12;whiteSpace=wrap;html=1;" vertex="1" parent="1">
          <mxGeometry x="830" y="210" width="40" height="30" as="geometry" />
        </mxCell>
        <mxCell id="VUu1D5smWkgnO6-AwXRt-28" value="1" style="text;strokeColor=none;fillColor=none;spacingLeft=4;spacingRight=4;overflow=hidden;rotatable=0;points=[[0,0.5],[1,0.5]];portConstraint=eastwest;fontSize=12;whiteSpace=wrap;html=1;" vertex="1" parent="1">
          <mxGeometry x="540" y="180" width="40" height="30" as="geometry" />
        </mxCell>
        <mxCell id="VUu1D5smWkgnO6-AwXRt-31" value="1" style="text;strokeColor=none;fillColor=none;spacingLeft=4;spacingRight=4;overflow=hidden;rotatable=0;points=[[0,0.5],[1,0.5]];portConstraint=eastwest;fontSize=12;whiteSpace=wrap;html=1;" vertex="1" parent="1">
          <mxGeometry x="410" y="180" width="40" height="30" as="geometry" />
        </mxCell>
        <mxCell id="VUu1D5smWkgnO6-AwXRt-32" value="1" style="text;strokeColor=none;fillColor=none;spacingLeft=4;spacingRight=4;overflow=hidden;rotatable=0;points=[[0,0.5],[1,0.5]];portConstraint=eastwest;fontSize=12;whiteSpace=wrap;html=1;" vertex="1" parent="1">
          <mxGeometry x="730" y="-50" width="40" height="30" as="geometry" />
        </mxCell>
        <mxCell id="VUu1D5smWkgnO6-AwXRt-33" value="M" style="text;strokeColor=none;fillColor=none;spacingLeft=4;spacingRight=4;overflow=hidden;rotatable=0;points=[[0,0.5],[1,0.5]];portConstraint=eastwest;fontSize=12;whiteSpace=wrap;html=1;" vertex="1" parent="1">
          <mxGeometry x="730" y="30" width="40" height="30" as="geometry" />
        </mxCell>
        <mxCell id="VUu1D5smWkgnO6-AwXRt-39" value="position" style="ellipse;whiteSpace=wrap;html=1;align=center;" vertex="1" parent="1">
          <mxGeometry x="330" y="-340" width="100" height="40" as="geometry" />
        </mxCell>
        <mxCell id="VUu1D5smWkgnO6-AwXRt-41" value="" style="endArrow=none;html=1;rounded=0;entryX=0.5;entryY=1;entryDx=0;entryDy=0;exitX=0.75;exitY=0;exitDx=0;exitDy=0;" edge="1" parent="1" source="JfFtpPmvwm0unq5B4NQ8-71" target="VUu1D5smWkgnO6-AwXRt-39">
          <mxGeometry width="50" height="50" relative="1" as="geometry">
            <mxPoint x="570" y="-50" as="sourcePoint" />
            <mxPoint x="620" y="-100" as="targetPoint" />
          </mxGeometry>
        </mxCell>
        <mxCell id="VUu1D5smWkgnO6-AwXRt-42" value="" style="endArrow=none;html=1;rounded=0;entryX=0.5;entryY=1;entryDx=0;entryDy=0;exitX=0.25;exitY=0;exitDx=0;exitDy=0;" edge="1" parent="1" source="JfFtpPmvwm0unq5B4NQ8-73" target="VUu1D5smWkgnO6-AwXRt-43">
          <mxGeometry width="50" height="50" relative="1" as="geometry">
            <mxPoint x="110" y="-200" as="sourcePoint" />
            <mxPoint x="70" y="-290" as="targetPoint" />
          </mxGeometry>
        </mxCell>
        <mxCell id="VUu1D5smWkgnO6-AwXRt-43" value="Degree Type" style="ellipse;whiteSpace=wrap;html=1;align=center;" vertex="1" parent="1">
          <mxGeometry x="20" y="-330" width="100" height="40" as="geometry" />
        </mxCell>
        <mxCell id="1kij8Iq1sjP4dTyGCAq3-1" value="Department ID" style="ellipse;whiteSpace=wrap;html=1;align=center;fontStyle=4;" vertex="1" parent="1">
          <mxGeometry x="1000" y="130" width="100" height="40" as="geometry" />
        </mxCell>
        <mxCell id="1kij8Iq1sjP4dTyGCAq3-2" value="" style="endArrow=none;html=1;rounded=0;exitX=0.5;exitY=1;exitDx=0;exitDy=0;entryX=0.5;entryY=0;entryDx=0;entryDy=0;" edge="1" parent="1" source="1kij8Iq1sjP4dTyGCAq3-1" target="JfFtpPmvwm0unq5B4NQ8-2">
          <mxGeometry width="50" height="50" relative="1" as="geometry">
            <mxPoint x="1030" y="120" as="sourcePoint" />
            <mxPoint x="1020" y="300" as="targetPoint" />
          </mxGeometry>
        </mxCell>
        <mxCell id="1kij8Iq1sjP4dTyGCAq3-3" value="REIMBURSEMENT" style="shape=ext;margin=3;double=1;whiteSpace=wrap;html=1;align=center;" vertex="1" parent="1">
          <mxGeometry x="670" y="150" width="160" height="40" as="geometry" />
        </mxCell>
        <mxCell id="1kij8Iq1sjP4dTyGCAq3-4" value="Department ID" style="ellipse;whiteSpace=wrap;html=1;align=center;fontStyle=4;" vertex="1" parent="1">
          <mxGeometry x="60" y="440" width="100" height="40" as="geometry" />
        </mxCell>
        <mxCell id="1kij8Iq1sjP4dTyGCAq3-5" value="" style="endArrow=none;html=1;rounded=0;entryX=0;entryY=0;entryDx=0;entryDy=0;exitX=1;exitY=0.5;exitDx=0;exitDy=0;" edge="1" parent="1" source="1kij8Iq1sjP4dTyGCAq3-4" target="JfFtpPmvwm0unq5B4NQ8-4">
          <mxGeometry width="50" height="50" relative="1" as="geometry">
            <mxPoint x="150" y="470" as="sourcePoint" />
            <mxPoint x="270" y="345" as="targetPoint" />
          </mxGeometry>
        </mxCell>
        <mxCell id="Liork6kfrY48I-zao6pi-1" value="" style="shape=link;html=1;rounded=0;entryX=0;entryY=0.75;entryDx=0;entryDy=0;" edge="1" parent="1" target="1kij8Iq1sjP4dTyGCAq3-3">
          <mxGeometry width="100" relative="1" as="geometry">
            <mxPoint x="550" y="180" as="sourcePoint" />
            <mxPoint x="650" y="180" as="targetPoint" />
          </mxGeometry>
        </mxCell>
      </root>
    </mxGraphModel>
  </diagram>
</mxfile>
